<svg width="100" height="100" viewBox="0 0 100 100" fill="none" xmlns="http://www.w3.org/2000/svg">
<rect width="100" height="100" fill="white"/>
<path d="M47.1691 42.8998V37.614C47.1691 37.0719 47.2369 36.5975 47.3047 36.1232C47.3724 35.6488 47.5757 35.1744 47.779 34.7678C48.0501 34.3612 48.4567 34.0224 48.9311 33.7513C49.2021 33.6158 49.4732 33.548 49.6765 33.548C49.9476 33.4803 50.2186 33.4803 50.4219 33.4803C50.6252 33.4803 50.7608 33.4803 50.8285 33.4803C51.0318 33.4803 51.3029 33.4803 51.7095 33.548C52.1161 33.6158 52.5227 33.7513 52.9293 34.0902C53.4037 34.4968 53.6747 34.9711 53.8103 35.5133C53.9458 36.0554 54.0136 36.6653 54.0813 37.343V42.4255C54.0813 42.9676 54.0136 43.442 53.9458 43.9163C53.878 44.3907 53.7425 44.8651 53.5392 45.4072C53.2681 45.9493 52.9971 46.4915 52.5905 46.9658C52.1839 47.4402 51.7773 47.9146 51.3707 48.3889C50.9641 48.8633 50.4897 49.2699 50.0831 49.6765C49.7443 50.0153 49.4054 50.4219 49.0666 50.7608C48.7278 51.0996 48.3889 51.4384 48.0501 51.7773C47.1014 52.6582 46.2204 53.5392 45.4072 54.4202C44.594 55.3011 43.8486 56.1821 43.1031 57.1308C42.4255 58.0796 41.7478 59.0961 41.1379 60.2481C40.528 61.4679 40.1214 62.6877 39.7826 63.9075C39.5115 65.1273 39.2404 66.3471 39.1727 67.5669C39.0371 68.7867 38.9694 70.0743 38.9016 71.4296V72.5139H62.2133V65.8727H47.508C47.508 65.4661 47.5757 65.1951 47.5757 64.9918C47.5757 64.7885 47.6435 64.5852 47.7113 64.4496C47.779 64.2463 47.779 64.1108 47.8468 63.8397C48.1179 62.9588 48.5922 62.1456 49.1344 61.3324C49.6765 60.5192 50.3542 59.7737 51.0318 59.0961C51.7095 58.4184 52.3872 57.7407 52.9971 57.1308C54.4879 55.7077 55.7755 54.4202 56.8598 53.2681C57.944 52.1161 58.8928 51.0996 59.5704 50.1509C60.2481 49.2021 60.7902 48.2534 61.0613 47.3724C61.1968 47.0336 61.2646 46.627 61.3324 46.2882C61.4001 45.9493 61.4679 45.5427 61.5357 45.0006C61.5357 44.5262 61.6034 43.9163 61.6712 43.1709V37.343C61.6712 37.2074 61.6034 36.9364 61.5357 36.3942C61.4679 35.9199 61.4001 35.3777 61.2646 34.7001C61.1291 34.0902 60.9935 33.4803 60.7225 32.8704C60.2481 31.8539 59.6382 30.9729 58.8928 30.2952C58.1473 29.6176 57.2664 29.1432 56.3854 28.7366C55.5044 28.3978 54.6235 28.1267 53.8103 27.9912C52.9971 27.8556 52.2516 27.7879 51.6417 27.7201C51.0318 27.7201 50.6252 27.6523 50.4219 27.7201C50.1509 27.7201 49.6765 27.7201 48.9988 27.7879C48.3889 27.7879 47.6435 27.9234 46.7625 28.1267C45.9493 28.33 45.0684 28.6011 44.1874 29.0754C43.3064 29.482 42.4932 30.0919 41.7478 30.9051C41.1379 31.5828 40.7313 32.2605 40.3925 33.0059C40.1214 33.7513 39.8503 34.4968 39.7826 35.31C39.9181 35.7843 39.8503 36.6653 39.8503 37.5463V42.9676H47.1691V42.8998ZM49.8798 14.3701C30.2952 14.3701 14.3701 30.363 14.3701 49.8798C14.3701 69.3966 30.2952 85.3895 49.8798 85.3895C69.4643 85.3895 85.3895 69.4644 85.3895 49.8798C85.3895 30.2952 69.4643 14.3701 49.8798 14.3701ZM49.8798 91.8273C26.7714 91.8273 8 72.9882 8 49.8798C8 26.7714 26.7714 8 49.8798 8C72.9882 8 91.7596 26.7714 91.7596 49.8798C91.7596 72.9882 72.9882 91.8273 49.8798 91.8273Z" fill="#0CD0F0"/>
</svg>
