<svg width="102" height="18" viewBox="0 0 102 18" fill="none" xmlns="http://www.w3.org/2000/svg">
<g clip-path="url(#clip0_2011_75)">
<path d="M18 6.95448L11.4596 6.52449L8.99641 0.336426L6.53326 6.52449L0 6.95448L5.01096 11.2093L3.36663 17.6636L8.99641 14.1051L14.6262 17.6636L12.9819 11.2093L18 6.95448Z" fill="#E4E2E2"/>
</g>
<g clip-path="url(#clip1_2011_75)">
<path d="M39 6.95448L32.4596 6.52449L29.9964 0.336426L27.5333 6.52449L21 6.95448L26.011 11.2093L24.3666 17.6636L29.9964 14.1051L35.6262 17.6636L33.9819 11.2093L39 6.95448Z" fill="#E4E2E2"/>
</g>
<g clip-path="url(#clip2_2011_75)">
<path d="M60 6.95448L53.4596 6.52449L50.9964 0.336426L48.5333 6.52449L42 6.95448L47.011 11.2093L45.3666 17.6636L50.9964 14.1051L56.6262 17.6636L54.9819 11.2093L60 6.95448Z" fill="#E4E2E2"/>
</g>
<g clip-path="url(#clip3_2011_75)">
<path d="M81 6.95448L74.4596 6.52449L71.9964 0.336426L69.5333 6.52449L63 6.95448L68.011 11.2093L66.3666 17.6636L71.9964 14.1051L77.6262 17.6636L75.9819 11.2093L81 6.95448Z" fill="#E4E2E2"/>
</g>
<g clip-path="url(#clip4_2011_75)">
<path d="M102 6.95448L95.4596 6.52449L92.9964 0.336426L90.5333 6.52449L84 6.95448L89.011 11.2093L87.3666 17.6636L92.9964 14.1051L98.6262 17.6636L96.9819 11.2093L102 6.95448Z" fill="#E4E2E2"/>
</g>
<defs>
<clipPath id="clip0_2011_75">
<rect width="18" height="18" fill="white"/>
</clipPath>
<clipPath id="clip1_2011_75">
<rect width="18" height="18" fill="white" transform="translate(21)"/>
</clipPath>
<clipPath id="clip2_2011_75">
<rect width="18" height="18" fill="white" transform="translate(42)"/>
</clipPath>
<clipPath id="clip3_2011_75">
<rect width="18" height="18" fill="white" transform="translate(63)"/>
</clipPath>
<clipPath id="clip4_2011_75">
<rect width="18" height="18" fill="white" transform="translate(84)"/>
</clipPath>
</defs>
</svg>
